<svg xmlns="http://www.w3.org/2000/svg" xmlns:xlink="http://www.w3.org/1999/xlink"><symbol id="address-icon-1" viewBox="0 0 18 22">
<path d="M15.364 15.5563L9 22L2.636 15.5563C1.37734 14.2819 0.520187 12.6581 0.172928 10.8905C-0.17433 9.12277 0.00390685 7.29051 0.685099 5.62539C1.36629 3.96027 2.51984 2.53707 3.99988 1.53576C5.47992 0.534448 7.21998 0 9 0C10.78 0 12.5201 0.534448 14.0001 1.53576C15.4802 2.53707 16.6337 3.96027 17.3149 5.62539C17.9961 7.29051 18.1743 9.12277 17.8271 10.8905C17.4798 12.6581 16.6227 14.2819 15.364 15.5563ZM9 11.1377C9.53044 11.1377 10.0391 10.9243 10.4142 10.5445C10.7893 10.1648 11 9.64969 11 9.11262C11 8.57554 10.7893 8.06047 10.4142 7.6807C10.0391 7.30093 9.53044 7.08757 9 7.08757C8.46957 7.08757 7.96086 7.30093 7.58579 7.6807C7.21072 8.06047 7 8.57554 7 9.11262C7 9.64969 7.21072 10.1648 7.58579 10.5445C7.96086 10.9243 8.46957 11.1377 9 11.1377Z" fill="#011C40"/>
</symbol><symbol id="icon-close" viewBox="0 0 20 20"><path d="M.293 18.291a1 1 0 101.414 1.414L10 11.413l8.292 8.292a1 1 0 101.414-1.414l-8.292-8.292 8.292-8.292A1 1 0 1018.291.293L9.999 8.585 1.707.293A1 1 0 10.293 1.707L8.585 10 .293 18.291z"/></symbol><symbol id="social-fb-min" viewBox="0 0 9 16">
<path d="M6 9.2H8.14286L9 6H6V4.4C6 3.576 6 2.8 7.71429 2.8H9V0.112C8.72057 0.0776001 7.66543 0 6.55114 0C4.224 0 2.57143 1.3256 2.57143 3.76V6H0V9.2H2.57143V16H6V9.2Z" fill="#F9FBFD"/>
</symbol><symbol id="social-fb" viewBox="0 0 11 20">
<path d="M7.31035 11.5H9.92118L10.9655 7.5H7.31035V5.5C7.31035 4.47 7.31035 3.5 9.39902 3.5H10.9655V0.14C10.6251 0.0970001 9.33949 0 7.98185 0C5.14648 0 3.13301 1.657 3.13301 4.7V7.5H0V11.5H3.13301V20H7.31035V11.5Z" fill="#F9FBFD"/>
</symbol><symbol id="social-ig-min" viewBox="0 0 16 16">
<path d="M8 0C10.1736 0 10.4448 0.00799995 11.2976 0.048C12.1496 0.088 12.7296 0.2216 13.24 0.42C13.768 0.6232 14.2128 0.8984 14.6576 1.3424C15.0644 1.74232 15.3792 2.22607 15.58 2.76C15.7776 3.2696 15.912 3.8504 15.952 4.7024C15.9896 5.5552 16 5.8264 16 8C16 10.1736 15.992 10.4448 15.952 11.2976C15.912 12.1496 15.7776 12.7296 15.58 13.24C15.3797 13.7742 15.0649 14.2581 14.6576 14.6576C14.2576 15.0643 13.7738 15.379 13.24 15.58C12.7304 15.7776 12.1496 15.912 11.2976 15.952C10.4448 15.9896 10.1736 16 8 16C5.8264 16 5.5552 15.992 4.7024 15.952C3.8504 15.912 3.2704 15.7776 2.76 15.58C2.22586 15.3796 1.74202 15.0648 1.3424 14.6576C0.935525 14.2577 0.620745 13.774 0.42 13.24C0.2216 12.7304 0.088 12.1496 0.048 11.2976C0.0104 10.4448 0 10.1736 0 8C0 5.8264 0.00799995 5.5552 0.048 4.7024C0.088 3.8496 0.2216 3.2704 0.42 2.76C0.620189 2.22574 0.935043 1.74186 1.3424 1.3424C1.74214 0.935385 2.22594 0.620583 2.76 0.42C3.2704 0.2216 3.8496 0.088 4.7024 0.048C5.5552 0.0104 5.8264 0 8 0ZM8 4C6.93913 4 5.92172 4.42143 5.17157 5.17157C4.42143 5.92172 4 6.93913 4 8C4 9.06087 4.42143 10.0783 5.17157 10.8284C5.92172 11.5786 6.93913 12 8 12C9.06087 12 10.0783 11.5786 10.8284 10.8284C11.5786 10.0783 12 9.06087 12 8C12 6.93913 11.5786 5.92172 10.8284 5.17157C10.0783 4.42143 9.06087 4 8 4ZM13.2 3.8C13.2 3.53478 13.0946 3.28043 12.9071 3.09289C12.7196 2.90536 12.4652 2.8 12.2 2.8C11.9348 2.8 11.6804 2.90536 11.4929 3.09289C11.3054 3.28043 11.2 3.53478 11.2 3.8C11.2 4.06522 11.3054 4.31957 11.4929 4.50711C11.6804 4.69464 11.9348 4.8 12.2 4.8C12.4652 4.8 12.7196 4.69464 12.9071 4.50711C13.0946 4.31957 13.2 4.06522 13.2 3.8ZM8 5.6C8.63652 5.6 9.24697 5.85286 9.69706 6.30294C10.1471 6.75303 10.4 7.36348 10.4 8C10.4 8.63652 10.1471 9.24697 9.69706 9.69706C9.24697 10.1471 8.63652 10.4 8 10.4C7.36348 10.4 6.75303 10.1471 6.30294 9.69706C5.85286 9.24697 5.6 8.63652 5.6 8C5.6 7.36348 5.85286 6.75303 6.30294 6.30294C6.75303 5.85286 7.36348 5.6 8 5.6Z" fill="#F9FBFD"/>
</symbol><symbol id="social-ig" viewBox="0 0 21 20">
<path d="M10.7357 0C13.3839 0 13.7144 0.00999994 14.7534 0.0599999C15.7915 0.11 16.4982 0.277 17.12 0.525C17.7633 0.779 18.3053 1.123 18.8472 1.678C19.3428 2.1779 19.7264 2.78259 19.9711 3.45C20.2118 4.087 20.3756 4.813 20.4243 5.878C20.4701 6.944 20.4828 7.283 20.4828 10C20.4828 12.717 20.473 13.056 20.4243 14.122C20.3756 15.187 20.2118 15.912 19.9711 16.55C19.7271 17.2178 19.3435 17.8226 18.8472 18.322C18.3598 18.8303 17.7705 19.2238 17.12 19.475C16.4991 19.722 15.7915 19.89 14.7534 19.94C13.7144 19.987 13.3839 20 10.7357 20C8.08736 20 7.75693 19.99 6.71789 19.94C5.67982 19.89 4.97315 19.722 4.35128 19.475C3.70049 19.2245 3.11099 18.8309 2.62409 18.322C2.12836 17.8222 1.74484 17.2175 1.50025 16.55C1.25852 15.913 1.09574 15.187 1.04701 14.122C1.0012 13.056 0.988525 12.717 0.988525 10C0.988525 7.283 0.998272 6.944 1.04701 5.878C1.09574 4.812 1.25852 4.088 1.50025 3.45C1.74416 2.78218 2.12777 2.17732 2.62409 1.678C3.11113 1.16923 3.70059 0.775729 4.35128 0.525C4.97315 0.277 5.67884 0.11 6.71789 0.0599999C7.75693 0.0129999 8.08736 0 10.7357 0ZM10.7357 5C9.4431 5 8.20349 5.52678 7.28952 6.46447C6.37555 7.40215 5.86209 8.67392 5.86209 10C5.86209 11.3261 6.37555 12.5979 7.28952 13.5355C8.20349 14.4732 9.4431 15 10.7357 15C12.0282 15 13.2678 14.4732 14.1818 13.5355C15.0958 12.5979 15.6092 11.3261 15.6092 10C15.6092 8.67392 15.0958 7.40215 14.1818 6.46447C13.2678 5.52678 12.0282 5 10.7357 5ZM17.0713 4.75C17.0713 4.41848 16.9429 4.10054 16.7144 3.86612C16.4859 3.6317 16.176 3.5 15.8529 3.5C15.5298 3.5 15.2199 3.6317 14.9914 3.86612C14.7629 4.10054 14.6345 4.41848 14.6345 4.75C14.6345 5.08152 14.7629 5.39946 14.9914 5.63388C15.2199 5.8683 15.5298 6 15.8529 6C16.176 6 16.4859 5.8683 16.7144 5.63388C16.9429 5.39946 17.0713 5.08152 17.0713 4.75ZM10.7357 7C11.5112 7 12.2549 7.31607 12.8033 7.87868C13.3517 8.44129 13.6598 9.20435 13.6598 10C13.6598 10.7956 13.3517 11.5587 12.8033 12.1213C12.2549 12.6839 11.5112 13 10.7357 13C9.96012 13 9.21636 12.6839 8.66797 12.1213C8.11959 11.5587 7.81151 10.7956 7.81151 10C7.81151 9.20435 8.11959 8.44129 8.66797 7.87868C9.21636 7.31607 9.96012 7 10.7357 7Z" fill="#F9FBFD"/>
</symbol><symbol id="social-tw-min" viewBox="0 0 16 13">
<path d="M15.9992 1.54324C15.4 1.80812 14.7645 1.98209 14.1138 2.05937C14.7996 1.64947 15.313 1.00438 15.5581 0.244297C14.9144 0.627078 14.2088 0.895338 13.4733 1.04045C12.9793 0.512227 12.3245 0.161908 11.6106 0.0439529C10.8968 -0.0740019 10.164 0.047017 9.52611 0.388195C8.88822 0.729374 8.38099 1.2716 8.08329 1.93057C7.78559 2.58954 7.71409 3.32833 7.87991 4.0321C6.57465 3.96673 5.29775 3.62777 4.13209 3.03724C2.96644 2.4467 1.93809 1.6178 1.11381 0.604331C0.822049 1.10512 0.668725 1.67441 0.669545 2.2539C0.669545 3.39126 1.24882 4.39606 2.12951 4.98435C1.60833 4.96795 1.09861 4.8273 0.642857 4.57411V4.6149C0.643014 5.37238 0.905313 6.1065 1.38528 6.69279C1.86525 7.27907 2.53335 7.68144 3.27629 7.83167C2.79248 7.96269 2.28517 7.98201 1.79278 7.88815C2.00225 8.54016 2.41052 9.11038 2.96043 9.51897C3.51034 9.92757 4.17436 10.1541 4.8595 10.1668C4.17856 10.7012 3.39888 11.0963 2.56506 11.3294C1.73123 11.5625 0.859598 11.6291 0 11.5253C1.50055 12.4897 3.24733 13.0017 5.0314 13C11.0699 13 14.3721 8.0011 14.3721 3.66579C14.3721 3.5246 14.3681 3.38184 14.3619 3.24222C15.0046 2.778 15.5593 2.20293 16 1.54403L15.9992 1.54324Z" fill="#F9FBFD"/>
</symbol><symbol id="social-tw" viewBox="0 0 20 17">
<path d="M19.999 2.42905C19.2689 2.76016 18.4947 2.97761 17.7019 3.07421C18.5375 2.56184 19.1629 1.75547 19.4616 0.805372C18.6774 1.28385 17.8176 1.61917 16.9215 1.80056C16.3196 1.14028 15.5217 0.702385 14.652 0.554941C13.7823 0.407498 12.8895 0.558771 12.1123 0.985244C11.3351 1.41172 10.7171 2.0895 10.3543 2.91321C9.99163 3.73692 9.90451 4.66042 10.1065 5.54013C8.51623 5.45841 6.96046 5.03471 5.54024 4.29654C4.12002 3.55838 2.86709 2.52225 1.8628 1.25541C1.50731 1.8814 1.32051 2.59302 1.3215 3.31737C1.3215 4.73907 2.02729 5.99507 3.10032 6.73043C2.46531 6.70994 1.84428 6.53412 1.28899 6.21764V6.26863C1.28918 7.21548 1.60876 8.13313 2.19355 8.86599C2.77834 9.59884 3.59234 10.1018 4.49754 10.2896C3.90806 10.4534 3.28997 10.4775 2.69004 10.3602C2.94526 11.1752 3.4427 11.888 4.1127 12.3987C4.78271 12.9095 5.59173 13.1926 6.4265 13.2085C5.59685 13.8765 4.6469 14.3703 3.63098 14.6617C2.61505 14.9531 1.55306 15.0364 0.505737 14.9067C2.33399 16.1121 4.46225 16.7521 6.63594 16.75C13.9931 16.75 18.0165 10.5014 18.0165 5.08224C18.0165 4.90575 18.0117 4.72731 18.0041 4.55278C18.7872 3.9725 19.4631 3.25366 20 2.43003L19.999 2.42905Z" fill="#F9FBFD"/>
</symbol></svg>